<?xml version="1.0" encoding="utf-8"?>
<!-- Generated by IcoMoon.io -->
<!DOCTYPE svg PUBLIC "-//W3C//DTD SVG 1.1//EN" "http://www.w3.org/Graphics/SVG/1.1/DTD/svg11.dtd">
<svg version="1.1" xmlns="http://www.w3.org/2000/svg" xmlns:xlink="http://www.w3.org/1999/xlink" width="512" height="512" viewBox="0 0 512 512">
<g>
</g>
	<path d="M333.077 38.533c25.682 0 45.895 10.987 45.895 27.495 0 1.864 0 3.666-1.863 5.519h84.48v403.794h-411.197v-403.804h67.912c-1.843-1.853-1.843-5.519-1.843-7.311 0-14.715 20.203-27.556 45.906-27.556 25.692 0 47.739 12.851 47.739 27.556 0 1.792-1.853 5.458-3.696 7.311h80.763c0-1.853-1.802-3.656-1.802-5.519 0.010-16.496 22.016-27.484 47.708-27.484v0zM144.005 71.537h36.721c3.666-1.853 5.519-5.519 5.519-7.311 0-7.373-11.018-14.715-23.869-14.715s-23.88 7.342-23.88 14.715c0 1.792 1.843 5.468 5.509 7.311v0zM312.924 71.537h40.356c1.822-1.853 1.822-3.656 1.822-5.519 0-9.165-9.165-14.663-22.016-14.663s-23.839 5.499-23.839 14.663c-0.010 1.864-0.010 3.676 3.676 5.519v0zM77.927 97.239v102.789h348.754v-102.789h-348.754zM200.94 216.555v104.632h110.142v-104.632h-110.142zM200.94 335.892v102.758h110.142v-102.759h-110.142zM70.615 216.555v104.632h111.923v-104.632h-111.923zM72.438 335.892v102.758h110.1v-102.759h-110.1zM329.421 216.555v104.632h111.964v-104.632h-111.964zM329.421 335.892v102.758h111.964v-102.759h-111.964z" fill="#000000" />
</svg>
