<?xml version="1.0" encoding="utf-8"?>
<!-- Generated by IcoMoon.io -->
<!DOCTYPE svg PUBLIC "-//W3C//DTD SVG 1.1//EN" "http://www.w3.org/Graphics/SVG/1.1/DTD/svg11.dtd">
<svg version="1.1" xmlns="http://www.w3.org/2000/svg" xmlns:xlink="http://www.w3.org/1999/xlink" width="512" height="512" viewBox="0 0 512 512">
<g>
</g>
	<path d="M397.404 87.214c15.565 0 28.242 12.411 28.242 27.648v343.327c0 15.237-12.677 27.627-28.242 27.627h-282.296c-19.364 0-20.337-26.512-20.337-31.826h-10.567c0 25.753 12.135 42.394 30.904 42.394h282.296c21.401 0 38.779-17.132 38.779-38.185v-343.347c0-21.064-17.377-38.195-38.779-38.195v10.558z" fill="#000000" />
	<path d="M348.437 70.707c0 0-10.937-7.465-9.738-15.483 1.198-8.038 3.123-2.416 3.123-2.416h16.261c0 0 9.8-35.102-19.385-37.181 0 0-33.536 5.509-17.244 55.429 0.010 0 17.162 19.917 26.983-0.348z" fill="#000000" />
	<path d="M250.481 70.707c0 0-10.947-7.465-9.728-15.483 1.157-8.038 3.102-2.416 3.102-2.416h16.23c0 0 9.81-35.102-19.333-37.181 0 0-33.546 5.509-17.285 55.429 0.010 0 17.162 19.917 27.013-0.348z" fill="#000000" />
	<path d="M152.433 70.707c0 0-10.905-7.465-9.749-15.483 1.198-8.038 3.093-2.416 3.093-2.416h16.261c0 0 9.799-35.102-19.353-37.181 0 0-33.536 5.509-17.275 55.429 0.010 0 17.121 19.917 27.024-0.348z" fill="#000000" />
	<path d="M375.716 59.269h-268.073c-18.749 0-31.826 8.612-31.826 27.197v350.638c0 18.565 15.165 33.608 33.935 33.608h268.042c18.739 0 33.976-15.053 33.976-33.608v-350.638c0.010-18.585-17.296-27.198-36.055-27.198zM239.35 59.341c10.629 0 19.22 8.52 19.22 19.026 0 10.526-8.591 19.036-19.221 19.036-10.619 0-19.251-8.51-19.251-19.036 0-10.506 8.622-19.026 19.251-19.026zM141.66 97.413c-10.608 0-19.221-8.51-19.221-19.036 0-10.506 8.612-19.026 19.221-19.026 10.619 0 19.241 8.519 19.241 19.026 0 10.526-8.612 19.036-19.241 19.036zM310.077 417.25h-72.489v-172.554c-11.479 9.185-23.040 16.087-34.509 21.842-10.343 5.765-24.156 10.353-41.421 16.118v-59.843c24.156-6.902 43.694-17.264 57.538-27.597 12.647-11.52 24.136-25.314 31.017-41.452h59.853v263.486zM337.039 97.413c-10.639 0-19.241-8.51-19.241-19.036 0-10.506 8.601-19.026 19.241-19.026 10.599 0 19.2 8.519 19.2 19.026 0 10.526-8.601 19.036-19.2 19.036z" fill="#000000" />
</svg>
