<?xml version="1.0" encoding="utf-8"?>
<!-- Generated by IcoMoon.io -->
<!DOCTYPE svg PUBLIC "-//W3C//DTD SVG 1.1//EN" "http://www.w3.org/Graphics/SVG/1.1/DTD/svg11.dtd">
<svg version="1.1" xmlns="http://www.w3.org/2000/svg" xmlns:xlink="http://www.w3.org/1999/xlink" width="512" height="512" viewBox="0 0 512 512">
<g>
</g>
	<path d="M231.731 213.074h39.752c19.527 0 35.328-15.821 35.328-35.328v-39.772c0-19.507-15.8-35.328-35.328-35.328h-39.751c-19.507 0-35.369 15.821-35.369 35.328v39.772c0 19.507 15.862 35.328 35.369 35.328z" fill="#000000" />
	<path d="M314.481 237.558h-125.788c-26.654 0-48.21 22.794-48.21 50.862v120.935h38.697v-122.44h10.455v122.45h120.822v-122.45h10.404v122.45h41.861c0-0.133 0-2.233 0-26.716v-94.218c-0.010-28.078-21.596-50.873-48.24-50.873z" fill="#000000" />
	<path d="M69.96 181.975h25.334c12.411 0 22.487-10.025 22.487-22.466v-25.314c0-12.431-10.076-22.518-22.487-22.518h-25.334c-12.441 0-22.477 10.087-22.477 22.518v25.314c0 12.431 10.035 22.466 22.477 22.466z" fill="#000000" />
	<path d="M122.654 197.591h-80.077c-16.947 0-30.669 14.5-30.669 32.368v77.005h24.647v-77.968h6.626v77.968h76.892v-77.968h6.646v77.968h26.624c0-0.103 0-1.433 0-17.019v-59.986c0.010-17.869-13.712-32.368-30.689-32.368z" fill="#000000" />
	<path d="M413.409 184.791h26.296c12.923 0 23.419-10.486 23.419-23.409v-26.317c0-12.912-10.496-23.398-23.419-23.398h-26.296c-12.933 0-23.368 10.486-23.368 23.398v26.306c0 12.923 10.435 23.419 23.368 23.419z" fill="#000000" />
	<path d="M468.183 200.96h-83.241c-17.592 0-31.877 15.083-31.877 33.648v80.046h25.57v-81.019h6.953v81.019h79.933v-81.019h6.912v81.019h27.668c0-0.072 0-1.485 0-17.695v-62.351c-0.010-18.565-14.315-33.649-31.918-33.649z" fill="#000000" />
</svg>
