<?xml version="1.0" encoding="utf-8"?>
<!-- Generated by IcoMoon.io -->
<!DOCTYPE svg PUBLIC "-//W3C//DTD SVG 1.1//EN" "http://www.w3.org/Graphics/SVG/1.1/DTD/svg11.dtd">
<svg version="1.1" xmlns="http://www.w3.org/2000/svg" xmlns:xlink="http://www.w3.org/1999/xlink" width="512" height="512" viewBox="0 0 512 512">
<g>
</g>
	<path d="M190.259 464.661c-2.437-3.103-2.437-39.24-55.255-82.8-52.828-43.561-43.571-105.615-20.377-148.234 23.143-42.639 53.442-70.246 83.63-94.587 0 0-19.169 50.34 6.82 111.032 23.347 54.559 4.25 105.871-7.803 138.311 7.404-14.521 70.134-75.981 22.405-197.714 0 0-18.882-79.38 21.893-121.078l15.759-22.242c0 0-28.713 66.734 2.765 108.421 0 0 72.96 101.817 17.634 2.786 0 0-16.691-35.225 3.697-64.86 0 0-7.158 47.094 22.825 80.251 0 0 57.63 80.988 0.174 165.735 4.577-4.782 87.675-66.263 38.963-170.455 5.54 4.844 56.658 77.353 65.003 98.672 0 0 33.331 106.558-40.796 151.019l-58.87 44.903-118.466 0.839z" fill="#000000" />
</svg>
