<?xml version="1.0" encoding="utf-8"?>
<!-- Generated by IcoMoon.io -->
<!DOCTYPE svg PUBLIC "-//W3C//DTD SVG 1.1//EN" "http://www.w3.org/Graphics/SVG/1.1/DTD/svg11.dtd">
<svg version="1.1" xmlns="http://www.w3.org/2000/svg" xmlns:xlink="http://www.w3.org/1999/xlink" width="512" height="512" viewBox="0 0 512 512">
<g>
</g>
	<path d="M462.377 166.697l-51.282 172.482v-180.418h43.305l7.977 7.936zM490.158 226.212l-84.849 160.236 50.913-167.301 29.983-0.87 3.952 7.936zM502.057 293.704l-92.385 103.7 64.738-114.985 23.675-0.645 3.973 11.93zM494.101 349.255l-91.289 71.454 71.598-83.712 11.766 0.338 7.926 11.919zM402.811 404.828c0 7.906-3.942 11.889-7.926 15.882-3.973 3.932-7.895 7.926-15.882 7.926h-107.161v-51.599c-3.952-3.983-11.889-7.926-15.872-7.926-3.952 0-7.936 3.973-15.851 7.926v51.599h-67.471v-51.599c-3.983-7.926-11.94-11.909-15.872-11.909-3.983 0-11.919 3.983-19.845 11.909v51.599h-103.178c-3.963 0-11.919-4.014-15.913-7.926-3.942-3.993-7.895-7.946-7.895-15.882v-261.95c0-7.926 3.963-11.909 7.895-15.872 7.957 0 11.95-3.963 15.913-3.963h59.495c7.957 0 11.94-7.946 11.94-23.829 3.953-7.926 7.936-15.862 15.872-15.862h55.572c7.936 0 11.899 7.936 11.899 15.862 3.983 15.882 7.936 23.828 11.919 23.828h182.548c11.878 0 19.835 7.926 19.835 19.835v261.95h-0.021z" fill="#000000" />
</svg>
