<?xml version="1.0" encoding="utf-8"?>
<!-- Generator: Adobe Illustrator 16.0.0, SVG Export Plug-In . SVG Version: 6.00 Build 0)  -->
<!DOCTYPE svg PUBLIC "-//W3C//DTD SVG 1.1//EN" "http://www.w3.org/Graphics/SVG/1.1/DTD/svg11.dtd">
<svg version="1.1" id="Layer_1" xmlns="http://www.w3.org/2000/svg" xmlns:xlink="http://www.w3.org/1999/xlink" x="0px" y="0px"
	 width="512px" height="512px" viewBox="0 0 512 512" enable-background="new 0 0 512 512" xml:space="preserve">
<g>
	<path d="M500.289,443.719l-96.875-96.906c-15.563,21.875-34.688,41-56.563,56.594l96.875,96.875
		c15.625,15.625,40.938,15.625,56.563,0S515.914,459.344,500.289,443.719z"/>
	<path d="M415.977,208c0-114.875-93.125-208-207.984-208c-114.875,0-208,93.125-208,208s93.125,208,208,208
		C322.852,416,415.977,322.875,415.977,208z M207.992,368c-88.219,0-160-71.781-160-160s71.781-160,160-160
		c88.234,0,159.984,71.781,159.984,160S296.227,368,207.992,368z"/>
	<path d="M287.977,240h-15.984c-17.688,0-32-14.313-32-32v-2.016c14.5-17.109,24-42.953,24-61.984
		c0-26.875-6.125-55.281-39.125-62.297C219.273,80.953,213.773,80,207.992,80s-11.281,0.953-16.875,1.703
		c-33,7.016-39.125,35.422-39.125,62.297c0,19.031,9.5,44.875,24,61.969V208c0,17.688-14.313,32-32,32h-16
		c0,0-17.219,4.938-33.813,25.422C115.273,307.125,158.055,336,207.992,336c49.906,0,92.672-28.875,113.797-70.578
		C305.227,244.922,287.977,240,287.977,240z"/>
</g>
</svg>
